<svg width="1000" height="1000" xmlns="http://www.w3.org/2000/svg">
  <defs><linearGradient x1="0" x2="0" y1="0" y2="1" id="delapouite-thermometer-hot-gradient-0"><stop offset="0%" stop-color="#0018ff" stop-opacity="1"></stop><stop offset="100%" stop-color="#29c0ab" stop-opacity="1"></stop></linearGradient></defs>
  <path id="svg_2" d="m0,0l1000,0l0,600l-1000,0l0,-600z" opacity="undefined" stroke="#000" fill="url(#delapouite-thermometer-hot-gradient-0)"/>
  <line id="svg_6" y2="600" x2="250" y1="0" x1="250" stroke="#000" fill="none"/>
  <line id="svg_7" y2="600" x2="500" y1="0" x1="500" stroke="#000" fill="none"/>
  <line id="svg_8" y2="600" x2="750" y1="3" x1="750" stroke="#000" fill="none"/>
 <svg width="891" height="300" y="0" x="35"  xmlns="http://www.w3.org/2000/svg">
  <path fill="#FFFF00" stroke="#000" stroke-width="0.5" d="m64.6836,31.25994c-18.377,0 -33.26026,14.80526 -33.26026,33.08596c0,18.26809 14.88326,33.08176 33.26026,33.08176c18.36011,0 33.25181,-14.81367 33.25181,-33.08176c0.00422,-18.2807 -14.88326,-33.08596 -33.25181,-33.08596zm0,57.767c-13.7046,-0.03362 -24.78149,-11.05247 -24.81529,-24.67684c0.02957,-13.62857 11.11069,-24.65162 24.81529,-24.68524c13.69615,0.03362 24.77305,11.05667 24.80262,24.68524c-0.02957,13.62437 -11.10647,24.64322 -24.80262,24.67684zm0,-59.98169c2.3362,0 4.2246,-1.8827 4.2246,-4.20666l0,-20.38613c-0.00845,-2.32396 -1.89262,-4.20246 -4.2246,-4.20246c-2.3362,0 -4.22882,1.8869 -4.2246,4.21086l0,20.38193c0,2.31555 1.8884,4.20246 4.2246,4.20246zm13.57363,2.68117c0.52807,0.22273 1.07727,0.31939 1.6138,0.32359c1.66449,0 3.23182,-0.97917 3.90775,-2.59712l7.84085,-18.83962c0.88717,-2.14746 -0.13096,-4.60169 -2.28551,-5.48841c-2.15877,-0.88672 -4.63016,0.13028 -5.52577,2.27353l-7.83663,18.84383c-0.89139,2.14325 0.13096,4.60169 2.28551,5.48421l0,-0.00001zm11.51203,7.65268c0.8238,0.81528 1.90529,1.23132 2.98679,1.23132s2.16299,-0.41184 2.98679,-1.23132l14.49037,-14.42704c1.65182,-1.63896 1.64759,-4.29912 0,-5.94648c-1.65604,-1.63896 -4.33021,-1.63896 -5.97781,0.0084l-14.48615,14.41864c-1.65182,1.64316 -1.65182,4.30332 0,5.94648l0.00001,0zm7.70144,11.4475c0.66749,1.61795 2.24326,2.59292 3.8993,2.59292c0.53652,0 1.08572,-0.10506 1.61802,-0.32779l18.9262,-7.80397c2.15877,-0.88672 3.18112,-3.34936 2.28551,-5.49261s-3.36278,-3.16025 -5.52155,-2.26933l-18.93043,7.80397c-2.15455,0.89092 -3.17267,3.35356 -2.27706,5.49682l0.00001,-0.00001zm27.41342,9.29164l-20.49353,0.0042c-2.33198,0 -4.2246,1.8827 -4.21615,4.20666c0,2.32396 1.8884,4.19826 4.21615,4.19826l20.49775,-0.0084c2.3362,0 4.22037,-1.8869 4.22037,-4.20246c0,-2.32396 -1.89262,-4.20666 -4.2246,-4.19826l0.00001,0zm-2.94877,23.23119l-18.93465,-7.79136c-2.16299,-0.89092 -4.63438,0.12607 -5.52155,2.27353c-0.89139,2.14746 0.13096,4.60589 2.28551,5.49682l18.93465,7.79136c0.5323,0.21433 1.0815,0.31518 1.61802,0.31518c1.66027,0 3.23182,-0.97497 3.90775,-2.59292c0.88717,-2.14746 -0.13941,-4.6101 -2.28973,-5.49261zm-26.16716,5.93807c-1.65182,-1.64316 -4.32176,-1.64316 -5.97358,0.0042c-1.65182,1.63896 -1.64759,4.29491 0,5.93807l14.50727,14.41023c0.8238,0.81948 1.90107,1.23132 2.98257,1.23132s2.16722,-0.41184 2.99102,-1.23132c1.65182,-1.64736 1.64337,-4.30752 0,-5.94648l-14.50727,-14.40603l-0.00001,0.00001zm-11.95984,9.93041c-0.89139,-2.14746 -3.36278,-3.16025 -5.52155,-2.27353c-2.15455,0.89092 -3.1769,3.34936 -2.28128,5.49682l7.85775,18.82702c0.67171,1.61795 2.24326,2.59292 3.90775,2.59292c0.54075,0 1.08995,-0.10086 1.61802,-0.31939c2.15877,-0.88672 3.1769,-3.34936 2.28128,-5.50102l-7.86198,-18.82281l0.00001,-0.00001zm-19.08251,0.43285c-2.3362,0 -4.2246,1.8827 -4.2246,4.20246l0.0169,20.38613c0,2.32396 1.89684,4.19826 4.2246,4.19826c2.3362,0 4.2246,-1.8827 4.21615,-4.20246l-0.01267,-20.39033c0,-2.31135 -1.89684,-4.19826 -4.22037,-4.19405l-0.00001,-0.00001zm-13.58631,-2.67276c-2.15455,-0.88252 -4.62171,0.13028 -5.51733,2.28194l-7.82396,18.83962c-0.88717,2.14746 0.13941,4.60589 2.29396,5.49261c0.52807,0.21853 1.07305,0.31939 1.6138,0.31939c1.65604,0 3.23182,-0.98338 3.90353,-2.60132l7.82818,-18.84803c0.89139,-2.14325 -0.13941,-4.59749 -2.29818,-5.48421zm-11.51626,-7.63587c-1.65604,-1.64316 -4.33021,-1.63476 -5.97781,0.0084l-14.47347,14.42704c-1.65182,1.64736 -1.64337,4.29912 0.00845,5.94648c0.8238,0.81528 1.90107,1.22712 2.98257,1.22712c1.08572,0 2.16722,-0.41184 2.99102,-1.23132l14.4777,-14.43124c1.64337,-1.64316 1.64337,-4.30332 -0.00845,-5.94648l-0.00001,0zm-7.70567,-11.43489c-0.89984,-2.13905 -3.36701,-3.15605 -5.52155,-2.26933l-18.92198,7.82078c-2.15877,0.89092 -3.1769,3.35356 -2.28128,5.49682c0.67594,1.61795 2.24326,2.58871 3.90353,2.58871c0.53652,0 1.08995,-0.10086 1.61802,-0.31939l18.92198,-7.82078c2.15032,-0.89933 3.17267,-3.35776 2.28128,-5.49682l0,0.00001zm-2.72909,-13.4983c0,-2.32396 -1.8884,-4.19826 -4.2246,-4.19826l-20.49353,0.02521c-2.3362,0 -4.22882,1.8827 -4.22037,4.20666c0.00422,2.31555 1.89684,4.20246 4.2246,4.19405l20.49775,-0.02521c2.33198,0 4.2246,-1.89111 4.21615,-4.20246l0,0.00001zm-21.78203,-19.00772l18.94732,7.77455c0.52807,0.22273 1.07305,0.31939 1.60957,0.31939c1.66027,0 3.23604,-0.97497 3.90775,-2.59712c0.89561,-2.14746 -0.13519,-4.6101 -2.29818,-5.48841l-18.93888,-7.77455c-2.15877,-0.88252 -4.62594,0.13448 -5.51733,2.27773c-0.89561,2.14746 0.13941,4.59749 2.28973,5.48841l0.00002,0zm26.16294,-5.95909c0.8238,0.81107 1.89684,1.22292 2.97834,1.22292s2.16722,-0.41184 2.99524,-1.23973c1.65182,-1.63476 1.64337,-4.29912 -0.0169,-5.94228l-14.50727,-14.38922c-1.64759,-1.63896 -4.33021,-1.63055 -5.97358,0.01261c-1.65182,1.63896 -1.64337,4.30332 0.00845,5.94228l14.51572,14.39342zm11.94294,-9.94722c0.67594,1.61374 2.24749,2.58451 3.8993,2.58451c0.54075,0 1.08995,-0.10506 1.62225,-0.32359c2.15455,-0.89092 3.18112,-3.35356 2.28128,-5.49261l-7.87465,-18.82281c-0.89561,-2.14325 -3.37123,-3.15605 -5.52577,-2.26513c-2.15455,0.89512 -3.17267,3.35776 -2.27706,5.49682l7.87465,18.82281z" id="svg_1"/>
  <path fill="#F47174" stroke="#000" stroke-width="0.5" d="m824,0.25l0.17512,12.63607c-31.2839,1.77348 -55.92513,20.57645 -55.92513,43.51082c0,-4.13141 6.8096,-7.48692 15.19518,-7.48692c8.39049,0 15.20009,3.35551 15.20009,7.48692c0,-4.13141 6.80469,-7.48692 15.19518,-7.48692c3.9915,0 7.61968,0.78598 10.33469,2.0254l0,61.60842c0,2.75595 -2.17986,4.98792 -4.86049,4.98792c-2.68555,0 -4.8654,-2.23197 -4.8654,-4.98792l0,-2.499l-9.7259,0l0,2.499c0,8.26786 6.53957,14.97889 14.5913,14.97889s14.58639,-6.71103 14.58639,-14.97889l0,-61.60842c2.715,-1.24446 6.3481,-2.0254 10.3396,-2.0254c8.38067,0 15.20009,3.35551 15.20009,7.48692c0,-4.13141 6.8096,-7.48692 15.19027,-7.48692c8.40031,0 15.20991,3.35551 15.20991,7.48692c0,-22.92934 -24.64614,-41.7323 -55.93495,-43.51082l0,-12.63607l-9.73081,0l-0.17514,0z" id="svg_2"/>
  <path fill="#0e1111" stroke="#000" stroke-width="0.5" d="m546.01312,6.89274c29.29292,-19.43849 58.58583,19.43849 87.87874,0l0,34.98928c-29.29291,19.4385 -58.58582,-19.43849 -87.87874,0l0,-34.98928z" id="svg_6"/>
  <path fill="#0e1111" stroke="#000" stroke-width="0.5" d="m529.25,6.80758l16.67697,0l0,122.94242l-16.67697,0l0,-122.94242z" id="svg_8"/>
  <path id="svg_7" d="m496.14465,144.73195l0.56913,0l0.17587,-0.54067l0.17587,0.54067l0.56913,0l-0.46044,0.33415l0.17588,0.54067l-0.46044,-0.33416l-0.46044,0.33416l0.17588,-0.54067l-0.46044,-0.33415z" stroke-width="0.5" stroke="#000" fill="#fff"/>
  <path id="svg_10" d="m299.72536,75.25514l0,-59.20967c0,-7.65678 -6.38669,-13.8567 -14.23416,-13.8567c-7.86446,0 -14.22567,6.19992 -14.22567,13.8567l0,58.74198c-8.94306,4.77617 -15.01551,14.03467 -15.01551,24.67138c0,15.52878 12.91776,28.11487 28.84626,28.11487c15.93699,0 28.84626,-12.58609 28.84626,-28.11487c0.00425,-10.31803 -5.71575,-19.31992 -14.21717,-24.2037zm-14.62484,47.7038c-13.2872,0 -24.10295,-10.54566 -24.10295,-23.50838c0,-8.57559 4.807,-16.47242 12.54407,-20.60708l2.4672,-1.30786l0,-61.49428c0,-5.09486 4.25921,-9.23366 9.4951,-9.23366c5.2274,0 9.47812,4.1388 9.47812,9.23366l0,61.84194l2.32706,1.34097c7.4568,4.2878 11.91559,11.84111 11.91559,20.22631c-0.00849,12.96272 -10.82849,23.50838 -24.12418,23.50838zm9.80085,-39.74903l-4.66687,-2.6778l0,-40.39054l-9.48236,0l0,40.12566l-4.93015,2.62814c-6.21683,3.33173 -10.08536,9.65996 -10.08536,16.5552c0,10.40494 8.69252,18.87706 19.36389,18.87706c10.67987,0 19.36389,-8.47212 19.36389,-18.87706c0.00849,-6.63036 -3.65621,-12.85097 -9.56305,-16.24065z" stroke-width="0.5" stroke="#000" fill="#808080"/>
</svg>
</svg>
